<mxfile host="app.diagrams.net" modified="2024-06-11T15:46:53.056Z" agent="Mozilla/5.0 (X11; Linux x86_64; rv:125.0) Gecko/20100101 Firefox/125.0" etag="e6PP5F2_sntUKpkqzJen" version="24.5.3" type="device">
  <diagram name="Page-1" id="2cc2dc42-3aac-f2a9-1cec-7a8b7cbee084">
    <mxGraphModel dx="1306" dy="1603" grid="1" gridSize="10" guides="1" tooltips="1" connect="1" arrows="1" fold="1" page="1" pageScale="1" pageWidth="1100" pageHeight="850" background="#ffffff" math="0" shadow="0">
      <root>
        <mxCell id="0" />
        <mxCell id="1" parent="0" />
        <mxCell id="Pr7GKmiMHucz_pP06GzT-21" value="" style="rounded=0;whiteSpace=wrap;html=1;align=left;horizontal=1;labelPosition=center;verticalLabelPosition=middle;verticalAlign=top;spacingLeft=4;spacingBottom=0;spacingTop=4;" vertex="1" parent="1">
          <mxGeometry y="-840" width="430" height="610" as="geometry" />
        </mxCell>
        <mxCell id="Pr7GKmiMHucz_pP06GzT-2" value="&lt;div&gt;&lt;b&gt;&lt;font style=&quot;font-size: 14px;&quot;&gt;General&lt;/font&gt;:&lt;/b&gt;&lt;/div&gt;&lt;div&gt;Subject: sb017&lt;br&gt;&lt;/div&gt;&lt;div&gt;Date: 01-01-2024&lt;/div&gt;&lt;div&gt;&lt;br&gt;&lt;/div&gt;" style="rounded=0;whiteSpace=wrap;html=1;align=left;horizontal=1;labelPosition=center;verticalLabelPosition=middle;verticalAlign=top;spacingLeft=4;spacingBottom=0;spacingTop=4;" vertex="1" parent="1">
          <mxGeometry x="15" y="-710" width="200" height="70" as="geometry" />
        </mxCell>
        <mxCell id="Pr7GKmiMHucz_pP06GzT-4" value="&lt;div&gt;&lt;b&gt;&lt;font style=&quot;font-size: 14px;&quot;&gt;Data View&lt;/font&gt;&lt;/b&gt;&lt;/div&gt;&lt;div&gt;&lt;b&gt;&lt;font style=&quot;font-size: 14px;&quot;&gt;&lt;br&gt;&lt;/font&gt;&lt;/b&gt;&lt;/div&gt;&lt;div&gt;&lt;b&gt;Cameras&lt;/b&gt;;&lt;br&gt;G:\data\cam-1-frontal&lt;/div&gt;&lt;div&gt;&lt;span style=&quot;white-space: pre;&quot;&gt;&#x9;&lt;/span&gt;50 000 elements&lt;br&gt;&lt;/div&gt;&lt;div&gt;G:\data\cam-2-lateral&lt;/div&gt;&lt;div&gt;&lt;span style=&quot;white-space: pre;&quot;&gt;&#x9;&lt;/span&gt;50 000 elements&lt;/div&gt;&lt;div&gt;&lt;b&gt;Ephys&lt;/b&gt;:&lt;br&gt;D:\data\ephys&lt;/div&gt;&lt;div&gt;&lt;span style=&quot;white-space: pre;&quot;&gt;&#x9;&lt;/span&gt;8 files&lt;/div&gt;&lt;div&gt;&lt;span style=&quot;white-space: pre;&quot;&gt;&#x9;&lt;/span&gt;145 mb&lt;/div&gt;&lt;div&gt;&lt;span style=&quot;white-space: pre;&quot;&gt;&#x9;&lt;/span&gt;~30 minutes of recording&lt;/div&gt;&lt;div&gt;&lt;b&gt;Data&lt;/b&gt;:&lt;/div&gt;&lt;div&gt;D:\data\sb017\20240101\&lt;/div&gt;&lt;div&gt;&lt;span style=&quot;white-space: pre;&quot;&gt;&#x9;(empty)&lt;/span&gt;&lt;br&gt;&lt;/div&gt;&lt;div&gt;&lt;br&gt;&lt;/div&gt;" style="rounded=0;whiteSpace=wrap;html=1;align=left;horizontal=1;labelPosition=center;verticalLabelPosition=middle;verticalAlign=top;spacingLeft=4;spacingBottom=0;spacingTop=4;" vertex="1" parent="1">
          <mxGeometry x="230" y="-820" width="180" height="240" as="geometry" />
        </mxCell>
        <mxCell id="Pr7GKmiMHucz_pP06GzT-9" value="&lt;div&gt;&lt;b&gt;&lt;font style=&quot;font-size: 14px;&quot;&gt;Zaber:&lt;/font&gt;&lt;/b&gt;&lt;/div&gt;&lt;div&gt;Running: False (RED)&lt;br&gt;&lt;/div&gt;&lt;div&gt;Protocol: 2x1 random delay&lt;br&gt;&lt;/div&gt;&lt;div&gt;X position: 47&lt;/div&gt;&lt;div&gt;Y position: 32&lt;/div&gt;&lt;div&gt;X next: 52&lt;/div&gt;&lt;div&gt;Y next: 59&lt;/div&gt;&lt;div&gt;Time to next: 00:01:02&lt;br&gt;&lt;/div&gt;" style="rounded=0;whiteSpace=wrap;html=1;align=left;horizontal=1;labelPosition=center;verticalLabelPosition=middle;verticalAlign=top;spacingLeft=4;spacingBottom=0;spacingTop=4;" vertex="1" parent="1">
          <mxGeometry x="15" y="-530" width="200" height="150" as="geometry" />
        </mxCell>
        <mxCell id="Pr7GKmiMHucz_pP06GzT-11" value="&lt;div&gt;&lt;b&gt;&lt;font style=&quot;font-size: 14px;&quot;&gt;Ephys:&lt;/font&gt;&lt;/b&gt;&lt;br&gt;Running: False (RED)&lt;/div&gt;" style="rounded=0;whiteSpace=wrap;html=1;align=left;horizontal=1;labelPosition=center;verticalLabelPosition=middle;verticalAlign=top;spacingLeft=4;spacingBottom=0;spacingTop=4;" vertex="1" parent="1">
          <mxGeometry x="15" y="-369" width="200" height="50" as="geometry" />
        </mxCell>
        <mxCell id="Pr7GKmiMHucz_pP06GzT-14" value="&lt;div&gt;&lt;b&gt;&lt;font style=&quot;font-size: 14px;&quot;&gt;Cameras:&lt;/font&gt;&lt;/b&gt;&lt;br&gt;Running: False (RED)&lt;br&gt;&lt;/div&gt;" style="rounded=0;whiteSpace=wrap;html=1;align=left;horizontal=1;labelPosition=center;verticalLabelPosition=middle;verticalAlign=top;spacingLeft=4;spacingBottom=0;spacingTop=4;" vertex="1" parent="1">
          <mxGeometry x="15" y="-310" width="200" height="60" as="geometry" />
        </mxCell>
        <mxCell id="Pr7GKmiMHucz_pP06GzT-48" value="&lt;div style=&quot;font-size: 14px;&quot;&gt;&lt;b&gt;Status:&lt;/b&gt;&lt;br&gt;&lt;/div&gt;&lt;div&gt;Initialized: False&lt;/div&gt;&lt;div&gt;Started: True&lt;/div&gt;&lt;div&gt;Time from start: 30 minutes&lt;/div&gt;" style="rounded=0;whiteSpace=wrap;html=1;align=left;horizontal=1;labelPosition=center;verticalLabelPosition=middle;verticalAlign=top;spacingLeft=4;spacingBottom=0;spacingTop=4;" vertex="1" parent="1">
          <mxGeometry x="15" y="-625" width="200" height="80" as="geometry" />
        </mxCell>
        <mxCell id="Pr7GKmiMHucz_pP06GzT-49" value="&lt;div&gt;&lt;br&gt;&lt;/div&gt;" style="rounded=0;whiteSpace=wrap;html=1;align=left;horizontal=1;labelPosition=center;verticalLabelPosition=middle;verticalAlign=top;spacingLeft=4;spacingBottom=0;spacingTop=4;" vertex="1" parent="1">
          <mxGeometry x="15" y="-820" width="200" height="100" as="geometry" />
        </mxCell>
        <mxCell id="Pr7GKmiMHucz_pP06GzT-50" value="&lt;b&gt;Initialize&lt;/b&gt;" style="rounded=1;whiteSpace=wrap;html=1;align=left;horizontal=1;labelPosition=center;verticalLabelPosition=middle;verticalAlign=top;spacingLeft=4;spacingBottom=0;spacingTop=4;" vertex="1" parent="1">
          <mxGeometry x="20" y="-810" width="70" height="30" as="geometry" />
        </mxCell>
        <mxCell id="Pr7GKmiMHucz_pP06GzT-51" value="&lt;b&gt;Start&lt;/b&gt;" style="rounded=1;whiteSpace=wrap;html=1;align=left;horizontal=1;labelPosition=center;verticalLabelPosition=middle;verticalAlign=top;spacingLeft=4;spacingBottom=0;spacingTop=4;" vertex="1" parent="1">
          <mxGeometry x="20" y="-765" width="70" height="30" as="geometry" />
        </mxCell>
        <mxCell id="Pr7GKmiMHucz_pP06GzT-53" value="&lt;b&gt;Switch Protocol&lt;br&gt;&lt;/b&gt;" style="rounded=1;whiteSpace=wrap;html=1;align=left;horizontal=1;labelPosition=center;verticalLabelPosition=middle;verticalAlign=top;spacingLeft=4;spacingBottom=0;spacingTop=4;" vertex="1" parent="1">
          <mxGeometry x="99" y="-810" width="105" height="30" as="geometry" />
        </mxCell>
        <mxCell id="Pr7GKmiMHucz_pP06GzT-54" value="&lt;b&gt;Switch Subject&lt;/b&gt;" style="rounded=1;whiteSpace=wrap;html=1;align=left;horizontal=1;labelPosition=center;verticalLabelPosition=middle;verticalAlign=top;spacingLeft=4;spacingBottom=0;spacingTop=4;" vertex="1" parent="1">
          <mxGeometry x="99" y="-765" width="105" height="30" as="geometry" />
        </mxCell>
        <mxCell id="Pr7GKmiMHucz_pP06GzT-57" value="&lt;font size=&quot;1&quot;&gt;&lt;b style=&quot;font-size: 14px;&quot;&gt;Manual controls&lt;/b&gt;&lt;/font&gt;&lt;font style=&quot;font-size: 11px;&quot;&gt;&lt;br&gt;&lt;/font&gt;&lt;br&gt;&lt;font style=&quot;font-size: 11px;&quot;&gt;&lt;span style=&quot;font-family: Arial, sans-serif; color: rgb(0, 0, 0); background-color: transparent; font-weight: 400; font-style: normal; font-variant: normal; text-decoration: none; vertical-align: baseline; white-space: pre-wrap;&quot;&gt;Zaber Home&lt;/span&gt;&lt;/font&gt;&lt;br&gt;&lt;font style=&quot;font-size: 11px;&quot;&gt;&lt;span style=&quot;font-family: Arial, sans-serif; color: rgb(0, 0, 0); background-color: transparent; font-weight: 400; font-style: normal; font-variant: normal; text-decoration: none; vertical-align: baseline; white-space: pre-wrap;&quot;&gt;Zaber starting position&lt;/span&gt;&lt;/font&gt;&lt;br&gt;&lt;font style=&quot;font-size: 11px;&quot;&gt;&lt;span style=&quot;font-family: Arial, sans-serif; color: rgb(0, 0, 0); background-color: transparent; font-weight: 400; font-style: normal; font-variant: normal; text-decoration: none; vertical-align: baseline; white-space: pre-wrap;&quot;&gt;Compress videos&lt;/span&gt;&lt;/font&gt;&lt;br&gt;&lt;font style=&quot;font-size: 11px;&quot;&gt;&lt;span style=&quot;font-family: Arial, sans-serif; color: rgb(0, 0, 0); background-color: transparent; font-weight: 400; font-style: normal; font-variant: normal; text-decoration: none; vertical-align: baseline; white-space: pre-wrap;&quot;&gt;Copy ephys&lt;/span&gt;&lt;/font&gt;&lt;br&gt;&lt;font style=&quot;font-size: 11px;&quot;&gt;&lt;span style=&quot;font-family: Arial, sans-serif; color: rgb(0, 0, 0); background-color: transparent; font-weight: 400; font-style: normal; font-variant: normal; text-decoration: none; vertical-align: baseline; white-space: pre-wrap;&quot;&gt;Save metadata&amp;nbsp;&lt;/span&gt;&lt;/font&gt;&lt;br&gt;&lt;font style=&quot;font-size: 11px;&quot;&gt;&lt;span style=&quot;font-family: Arial, sans-serif; color: rgb(0, 0, 0); background-color: transparent; font-weight: 400; font-style: normal; font-variant: normal; text-decoration: none; vertical-align: baseline; white-space: pre-wrap;&quot;&gt;Start/stop zaber&lt;/span&gt;&lt;/font&gt;&lt;br&gt;&lt;font style=&quot;font-size: 11px;&quot;&gt;&lt;span style=&quot;font-family: Arial, sans-serif; color: rgb(0, 0, 0); background-color: transparent; font-weight: 400; font-style: normal; font-variant: normal; text-decoration: none; vertical-align: baseline; white-space: pre-wrap;&quot;&gt;Start/stop cameras&lt;/span&gt;&lt;/font&gt;&lt;br&gt;&lt;font style=&quot;font-size: 11px;&quot;&gt;&lt;span style=&quot;font-family: Arial, sans-serif; color: rgb(0, 0, 0); background-color: transparent; font-weight: 400; font-style: normal; font-variant: normal; text-decoration: none; vertical-align: baseline; white-space: pre-wrap;&quot;&gt;Start/stop ephys&lt;/span&gt;&lt;/font&gt;&lt;br&gt;&lt;br&gt;&lt;br&gt;&lt;br&gt;&lt;br&gt;&lt;br&gt;&lt;br&gt;&lt;br&gt;&lt;div&gt;&lt;br&gt;&lt;/div&gt;" style="rounded=0;whiteSpace=wrap;html=1;align=left;horizontal=1;labelPosition=center;verticalLabelPosition=middle;verticalAlign=top;spacingLeft=4;spacingBottom=0;spacingTop=4;" vertex="1" parent="1">
          <mxGeometry x="230" y="-565" width="180" height="317" as="geometry" />
        </mxCell>
      </root>
    </mxGraphModel>
  </diagram>
</mxfile>
